<?xml version="1.0" standalone="no"?>
<!DOCTYPE svg PUBLIC "-//W3C//DTD SVG 20010904//EN"
 "http://www.w3.org/TR/2001/REC-SVG-20010904/DTD/svg10.dtd">
<svg version="1.0" xmlns="http://www.w3.org/2000/svg"
 width="512.000000pt" height="512.000000pt" viewBox="0 0 512.000000 512.000000"
 preserveAspectRatio="xMidYMid meet">
<metadata>
Created by potrace 1.14, written by Peter Selinger 2001-2017
</metadata>
<g transform="translate(0.000000,512.000000) scale(0.100000,-0.100000)"
fill="#000000" stroke="none">
<path d="M475 5096 c-118 -32 -199 -79 -285 -166 -123 -124 -180 -254 -185
-425 -4 -126 12 -202 66 -313 57 -118 160 -221 280 -279 159 -78 -3 -73 1989
-73 1928 0 1835 -2 1963 52 130 55 259 176 320 301 52 106 70 194 64 313 -5
113 -9 135 -41 213 -71 175 -216 309 -404 371 l-87 29 -1800 0 -1800 0 -80
-23z m1124 -430 c95 -50 134 -188 80 -286 -36 -66 -95 -103 -173 -108 -49 -3
-71 0 -102 16 -129 67 -164 223 -72 328 69 79 173 98 267 50z m-859 0 c27 -13
57 -40 75 -67 25 -37 30 -54 32 -113 2 -78 -9 -106 -58 -155 -82 -82 -220 -82
-301 1 -76 78 -79 209 -7 289 63 70 173 89 259 45z"/>
<path d="M627 3413 c-1 -1 -24 -2 -52 -4 -133 -7 -295 -87 -402 -198 -48 -50
-112 -159 -140 -237 -24 -70 -27 -93 -27 -204 1 -108 4 -135 27 -198 59 -169
185 -309 340 -380 119 -55 115 -55 769 -57 l606 -2 21 56 c123 337 526 496
853 337 87 -43 97 -51 259 -212 l127 -126 38 20 c48 24 97 40 147 48 29 4 52
19 92 59 84 84 207 148 328 170 22 4 51 25 88 62 78 79 205 147 314 169 33 7
147 6 200 -1 107 -14 263 -93 365 -184 l45 -40 17 38 c102 226 46 513 -136
693 -105 104 -237 170 -368 184 -51 6 -3506 13 -3511 7z m106 -449 c77 -39
117 -103 117 -189 0 -191 -233 -287 -361 -148 -47 50 -62 90 -57 158 10 154
166 247 301 179z m850 1 c101 -47 151 -175 107 -272 -61 -138 -235 -175 -339
-74 -49 49 -62 75 -68 136 -15 159 156 279 300 210z"/>
<path d="M4070 2286 c-46 -13 -106 -76 -119 -123 -24 -85 -3 -148 74 -225 48
-47 59 -89 25 -96 -8 -1 -58 40 -110 91 -125 123 -138 130 -213 131 -109 2
-184 -65 -194 -171 -7 -80 7 -105 129 -230 89 -91 98 -104 88 -122 -19 -37
-19 -37 -195 137 -155 153 -183 169 -273 159 -120 -13 -201 -161 -147 -268 10
-19 82 -100 162 -181 131 -132 144 -148 133 -167 -6 -12 -16 -21 -23 -21 -7 0
-217 205 -467 456 -250 250 -474 467 -498 481 -46 27 -116 34 -163 15 -64 -26
-118 -98 -123 -165 -7 -91 -22 -73 571 -668 l555 -556 -119 2 c-135 2 -209
-11 -300 -55 -108 -53 -213 -188 -213 -274 0 -30 7 -45 34 -72 19 -19 42 -34
53 -35 10 -1 65 -2 123 -4 198 -4 295 -31 570 -153 273 -121 421 -163 605
-167 210 -5 337 47 498 204 125 121 339 339 375 381 44 52 115 167 145 235 40
93 58 171 63 276 6 153 -34 282 -129 409 -55 74 -725 744 -765 764 -38 20
-107 25 -152 12z"/>
<path d="M495 1688 c-383 -90 -596 -508 -444 -869 87 -206 286 -359 503 -386
28 -3 413 -6 856 -6 l805 -1 13 79 c25 151 117 333 212 419 l41 37 -305 307
c-304 306 -344 349 -372 408 l-15 31 -609 0 c-551 -1 -616 -3 -685 -19z m205
-418 c82 -22 148 -108 151 -197 4 -122 -87 -215 -211 -216 -193 -2 -284 231
-143 365 53 51 127 68 203 48z m891 -17 c124 -66 152 -226 58 -328 -126 -137
-357 -58 -364 124 -3 74 8 109 47 154 68 77 172 97 259 50z"/>
</g>
</svg>
